<svg xmlns="http://www.w3.org/2000/svg" class="graphdiagram" viewBox="-395.76476452262716 -1146.1750611063803 2835.058687317151 1914.3092902055885"><g class="layer relationships"><g class="related-pair"><g class="relationship" transform="translate(-317.5824966430664,-451) rotate(26.58838238774938)"><path class="relationship" d="M 89.18226787956077 4 L 849.6348634886072 4 L 849.6348634886072 16 L 881.6348634886072 0 L 849.6348634886072 -16 L 849.6348634886072 -4 L 89.18226787956077 -4 Z" fill="rgb(0, 0, 0)" stroke="rgb(51, 51, 51)" stroke-width="0px"/><text class="type" text-anchor="middle" baseline-shift="30%" alignment-baseline="alphabetic" x="469.40856568408395" y="0" font-size="50px" font-family="'Gill Sans', 'Gill Sans MT', Calibri, sans-serif">SCROBBLED</text></g></g><g class="related-pair"><g class="relationship" transform="translate(583.5,0) rotate(-90)"><path class="relationship" d="M 126.01123795599317 4 L 292.9887620440068 4 L 292.9887620440068 16 L 324.9887620440068 0 L 292.9887620440068 -16 L 292.9887620440068 -4 L 126.01123795599317 -4 Z" fill="rgb(0, 0, 0)" stroke="rgb(51, 51, 51)" stroke-width="0px"/><text class="type" text-anchor="middle" baseline-shift="30%" alignment-baseline="alphabetic" x="209.5" y="0" font-size="50px" font-family="'Gill Sans', 'Gill Sans MT', Calibri, sans-serif">NEXT</text></g></g><g class="related-pair"><g class="relationship" transform="translate(583.5,-451) rotate(-90)"><path class="relationship" d="M 126.01123795599317 4 L 292.98174300103807 4 L 292.98174300103807 16 L 324.98174300103807 0 L 292.98174300103807 -16 L 292.98174300103807 -4 L 126.01123795599317 -4 Z" fill="rgb(0, 0, 0)" stroke="rgb(51, 51, 51)" stroke-width="0px"/><text class="type" text-anchor="middle" baseline-shift="30%" alignment-baseline="alphabetic" x="209.49649047851562" y="0" font-size="50px" font-family="'Gill Sans', 'Gill Sans MT', Calibri, sans-serif">NEXT</text></g></g><g class="related-pair"><g class="relationship" transform="translate(583.5,0) rotate(0)"><path class="relationship" d="M 126.01123795599317 4 L 469.9603316190744 4 L 469.9603316190744 16 L 501.9603316190744 0 L 469.9603316190744 -16 L 469.9603316190744 -4 L 126.01123795599317 -4 Z" fill="rgb(0, 0, 0)" stroke="rgb(51, 51, 51)" stroke-width="0px"/><text class="type" text-anchor="middle" baseline-shift="30%" alignment-baseline="alphabetic" x="297.98578478753376" y="0" font-size="50px" font-family="'Gill Sans', 'Gill Sans MT', Calibri, sans-serif">PLAYED</text></g></g><g class="related-pair"><g class="relationship" transform="translate(583.5,-451) rotate(0)"><path class="relationship" d="M 126.01123795599317 4 L 469.9603316190744 4 L 469.9603316190744 16 L 501.9603316190744 0 L 469.9603316190744 -16 L 469.9603316190744 -4 L 126.01123795599317 -4 Z" fill="rgb(0, 0, 0)" stroke="rgb(51, 51, 51)" stroke-width="0px"/><text class="type" text-anchor="middle" baseline-shift="30%" alignment-baseline="alphabetic" x="297.98578478753376" y="0" font-size="50px" font-family="'Gill Sans', 'Gill Sans MT', Calibri, sans-serif">PLAYED</text></g></g><g class="related-pair"><g class="relationship" transform="translate(1183.16455078125,0) rotate(0)"><path class="relationship" d="M 97.70421916217559 4 L 508.0411171441683 4 L 508.0411171441683 16 L 540.0411171441683 0 L 508.0411171441683 -16 L 508.0411171441683 -4 L 97.70421916217559 -4 Z" fill="rgb(0, 0, 0)" stroke="rgb(51, 51, 51)" stroke-width="0px"/><text class="type" text-anchor="middle" baseline-shift="30%" alignment-baseline="alphabetic" x="302.87266815317196" y="0" font-size="50px" font-family="'Gill Sans', 'Gill Sans MT', Calibri, sans-serif">SUNG BY</text></g></g><g class="related-pair"><g class="relationship" transform="translate(1183.16455078125,-451) rotate(-22.780450153807095)"><path class="relationship" d="M 97.70421916217559 4 L 477.0786087198252 4 L 477.0786087198252 16 L 509.0786087198252 0 L 477.0786087198252 -16 L 477.0786087198252 -4 L 97.70421916217559 -4 Z" fill="rgb(0, 0, 0)" stroke="rgb(51, 51, 51)" stroke-width="0px"/><text class="type" text-anchor="middle" baseline-shift="30%" alignment-baseline="alphabetic" x="287.3914139410004" y="0" font-size="50px" font-family="'Gill Sans', 'Gill Sans MT', Calibri, sans-serif">SUNG BY</text></g></g><g class="related-pair"><g class="relationship" transform="translate(583.5,-901.9929809570312) rotate(0)"><path class="relationship" d="M 126.01123795599317 4 L 469.9603316190744 4 L 469.9603316190744 16 L 501.9603316190744 0 L 469.9603316190744 -16 L 469.9603316190744 -4 L 126.01123795599317 -4 Z" fill="rgb(0, 0, 0)" stroke="rgb(51, 51, 51)" stroke-width="0px"/><text class="type" text-anchor="middle" baseline-shift="30%" alignment-baseline="alphabetic" x="297.98578478753376" y="0" font-size="50px" font-family="'Gill Sans', 'Gill Sans MT', Calibri, sans-serif">PLAYED</text></g></g><g class="related-pair"><g class="relationship" transform="translate(1183.16455078125,-901.9929809570312) rotate(21.13168377193755)"><path class="relationship" d="M 97.70421916217559 4 L 470.0824276954568 4 L 470.0824276954568 16 L 502.0824276954568 0 L 470.0824276954568 -16 L 470.0824276954568 -4 L 97.70421916217559 -4 Z" fill="rgb(0, 0, 0)" stroke="rgb(51, 51, 51)" stroke-width="0px"/><text class="type" text-anchor="middle" baseline-shift="30%" alignment-baseline="alphabetic" x="283.8933234288162" y="0" font-size="50px" font-family="'Gill Sans', 'Gill Sans MT', Calibri, sans-serif">SUNG BY</text></g></g><g class="related-pair"><g class="relationship" transform="translate(1183.16455078125,-451) rotate(0)"><path class="relationship" d="M 97.70421916217559 4 L 1025.171165096101 4 L 1025.171165096101 16 L 1057.171165096101 0 L 1025.171165096101 -16 L 1025.171165096101 -4 L 97.70421916217559 -4 Z" fill="rgb(0, 0, 0)" stroke="rgb(51, 51, 51)" stroke-width="0px"/><text class="type" text-anchor="middle" baseline-shift="30%" alignment-baseline="alphabetic" x="561.4376921291383" y="0" font-size="50px" font-family="'Gill Sans', 'Gill Sans MT', Calibri, sans-serif">ON</text></g></g><g class="related-pair"><g class="relationship" transform="translate(-317.5824966430664,-451) rotate(0)"><path class="relationship" d="M 89.18226787956077 4 L 743.0712586870733 4 L 743.0712586870733 16 L 775.0712586870733 0 L 743.0712586870733 -16 L 743.0712586870733 -4 L 89.18226787956077 -4 Z" fill="rgb(0, 0, 0)" stroke="rgb(51, 51, 51)" stroke-width="0px"/><text class="type" text-anchor="middle" baseline-shift="30%" alignment-baseline="alphabetic" x="416.126763283317" y="0" font-size="50px" font-family="'Gill Sans', 'Gill Sans MT', Calibri, sans-serif">SCROBBLED</text></g></g><g class="related-pair"><g class="relationship" transform="translate(-317.5824966430664,-451) rotate(-26.58802548459756)"><path class="relationship" d="M 89.18226787956077 4 L 849.6317219405224 4 L 849.6317219405224 16 L 881.6317219405224 0 L 849.6317219405224 -16 L 849.6317219405224 -4 L 89.18226787956077 -4 Z" fill="rgb(0, 0, 0)" stroke="rgb(51, 51, 51)" stroke-width="0px"/><text class="type" text-anchor="middle" baseline-shift="30%" alignment-baseline="alphabetic" x="469.4069949100416" y="0" font-size="50px" font-family="'Gill Sans', 'Gill Sans MT', Calibri, sans-serif">SCROBBLED</text></g></g><g class="related-pair"><g class="relationship" transform="translate(1183.16455078125,0) rotate(40.5264516758336)"><path class="relationship" d="M 97.70421916217559 4 L 701.7175615470745 4 L 701.7175615470745 16 L 733.7175615470745 0 L 701.7175615470745 -16 L 701.7175615470745 -4 L 97.70421916217559 -4 Z" fill="rgb(0, 0, 0)" stroke="rgb(51, 51, 51)" stroke-width="0px"/><text class="type" text-anchor="middle" baseline-shift="30%" alignment-baseline="alphabetic" x="399.71089035462506" y="0" font-size="50px" font-family="'Gill Sans', 'Gill Sans MT', Calibri, sans-serif">ON</text></g></g><g class="related-pair"><g class="relationship" transform="translate(2345.3148193359375,-451) rotate(-158.7181580518204)"><path class="relationship" d="M 104.97910345858652 4 L 517.5945655185933 4 L 517.5945655185933 16 L 549.5945655185933 0 L 517.5945655185933 -16 L 517.5945655185933 -4 L 104.97910345858652 -4 Z" fill="rgb(0, 0, 0)" stroke="rgb(51, 51, 51)" stroke-width="0px"/><text class="type" text-anchor="middle" baseline-shift="30%" alignment-baseline="alphabetic" transform="rotate(180)" x="-311.28683448858993" y="0" font-size="50px" font-family="'Gill Sans', 'Gill Sans MT', Calibri, sans-serif">CREATED BY</text></g></g><g class="related-pair"><g class="relationship" transform="translate(1820.6629638671875,544.9842834472656) rotate(-90)"><path class="relationship" d="M 104.97910345858652 4 L 415.52698750549644 4 L 415.52698750549644 16 L 447.52698750549644 0 L 415.52698750549644 -16 L 415.52698750549644 -4 L 104.97910345858652 -4 Z" fill="rgb(0, 0, 0)" stroke="rgb(51, 51, 51)" stroke-width="0px"/><text class="type" text-anchor="middle" baseline-shift="30%" alignment-baseline="alphabetic" x="260.2530454820415" y="0" font-size="50px" font-family="'Gill Sans', 'Gill Sans MT', Calibri, sans-serif">CREATED BY</text></g></g></g><g class="layer nodes"><circle class="node node-id-0" r="74.18226787956077" fill="rgb(255, 255, 255)" stroke="rgb(0, 0, 0)" stroke-width="8px" cx="-317.5824966430664" cy="-451"/><g class="caption"><text class="caption node" text-anchor="middle" alignment-baseline="central" x="-317.5824966430664" y="-451" font-size="50px" font-family="'Gill Sans', 'Gill Sans MT', Calibri, sans-serif">User</text></g><circle class="node node-id-1" r="111.01123795599317" fill="rgb(255, 255, 255)" stroke="rgb(0, 0, 0)" stroke-width="8px" cx="583.5" cy="0"/><g class="caption"><text class="caption node" text-anchor="middle" alignment-baseline="central" x="583.5" y="0" font-size="50px" font-family="'Gill Sans', 'Gill Sans MT', Calibri, sans-serif">Scrobble</text></g><circle class="node node-id-2" r="111.01123795599317" fill="rgb(255, 255, 255)" stroke="rgb(0, 0, 0)" stroke-width="8px" cx="583.5" cy="-451"/><g class="caption"><text class="caption node" text-anchor="middle" alignment-baseline="central" x="583.5" y="-451" font-size="50px" font-family="'Gill Sans', 'Gill Sans MT', Calibri, sans-serif">Scrobble</text></g><circle class="node node-id-3" r="111.01123795599317" fill="rgb(255, 255, 255)" stroke="rgb(0, 0, 0)" stroke-width="8px" cx="583.5" cy="-901.9929809570312"/><g class="caption"><text class="caption node" text-anchor="middle" alignment-baseline="central" x="583.5" y="-901.9929809570312" font-size="50px" font-family="'Gill Sans', 'Gill Sans MT', Calibri, sans-serif">Scrobble</text></g><circle class="node node-id-4" r="82.70421916217559" fill="rgb(255, 255, 255)" stroke="rgb(0, 0, 0)" stroke-width="8px" cx="1183.16455078125" cy="0"/><g class="caption"><text class="caption node" text-anchor="middle" alignment-baseline="central" x="1183.16455078125" y="0" font-size="50px" font-family="'Gill Sans', 'Gill Sans MT', Calibri, sans-serif">Track</text></g><circle class="node node-id-5" r="82.70421916217559" fill="rgb(255, 255, 255)" stroke="rgb(0, 0, 0)" stroke-width="8px" cx="1183.16455078125" cy="-451"/><g class="caption"><text class="caption node" text-anchor="middle" alignment-baseline="central" x="1183.16455078125" y="-451" font-size="50px" font-family="'Gill Sans', 'Gill Sans MT', Calibri, sans-serif">Track</text></g><circle class="node node-id-6" r="82.45729594176916" fill="rgb(255, 255, 255)" stroke="rgb(0, 0, 0)" stroke-width="8px" cx="1820.6629638671875" cy="0"/><g class="caption"><text class="caption node" text-anchor="middle" alignment-baseline="central" x="1820.6629638671875" y="0" font-size="50px" font-family="'Gill Sans', 'Gill Sans MT', Calibri, sans-serif">Artist</text></g><circle class="node node-id-7" r="82.45729594176916" fill="rgb(255, 255, 255)" stroke="rgb(0, 0, 0)" stroke-width="8px" cx="1742.3878173828125" cy="-685.851318359375"/><circle class="node node-id-8" r="82.70421916217559" fill="rgb(255, 255, 255)" stroke="rgb(0, 0, 0)" stroke-width="8px" cx="1183.16455078125" cy="-901.9929809570312"/><g class="caption"><text class="caption node" text-anchor="middle" alignment-baseline="central" x="1742.3878173828125" y="-685.851318359375" font-size="50px" font-family="'Gill Sans', 'Gill Sans MT', Calibri, sans-serif">Artist</text></g><g class="caption"><text class="caption node" text-anchor="middle" alignment-baseline="central" x="1183.16455078125" y="-901.9929809570312" font-size="50px" font-family="'Gill Sans', 'Gill Sans MT', Calibri, sans-serif">Track</text></g><circle class="node node-id-9" r="89.97910345858652" fill="rgb(255, 255, 255)" stroke="rgb(0, 0, 0)" stroke-width="8px" cx="2345.3148193359375" cy="-451"/><g class="caption"><text class="caption node" text-anchor="middle" alignment-baseline="central" x="2345.3148193359375" y="-451" font-size="50px" font-family="'Gill Sans', 'Gill Sans MT', Calibri, sans-serif">Album</text></g><circle class="node node-id-10" r="89.97910345858652" fill="rgb(255, 255, 255)" stroke="rgb(0, 0, 0)" stroke-width="8px" cx="1820.6629638671875" cy="544.9842834472656"/><g class="caption"><text class="caption node" text-anchor="middle" alignment-baseline="central" x="1820.6629638671875" y="544.9842834472656" font-size="50px" font-family="'Gill Sans', 'Gill Sans MT', Calibri, sans-serif">Album</text></g></g><g class="layer properties"/><g class="layer overlay"><circle class="node overlay" r="78.18226787956077" stroke="none" fill="rgba(255, 255, 255, 0)" cx="-317.5824966430664" cy="-451"/><circle class="node ring" r="83.18226787956077" fill="none" stroke="rgba(255, 255, 255, 0)" stroke-width="10px" cx="-317.5824966430664" cy="-451"/><circle class="node overlay" r="115.01123795599317" stroke="none" fill="rgba(255, 255, 255, 0)" cx="583.5" cy="0"/><circle class="node ring" r="120.01123795599317" fill="none" stroke="rgba(255, 255, 255, 0)" stroke-width="10px" cx="583.5" cy="0"/><path class="relationship overlay" fill="rgba(255, 255, 255, 0)" stroke="rgba(255, 255, 255, 0)" stroke-width="10px" transform="translate(-317.5824966430664,-451) rotate(26.58838238774938)" d="M 89.18226787956077 4 L 849.6348634886072 4 L 849.6348634886072 16 L 881.6348634886072 0 L 849.6348634886072 -16 L 849.6348634886072 -4 L 89.18226787956077 -4 Z"/><circle class="node overlay" r="115.01123795599317" stroke="none" fill="rgba(255, 255, 255, 0)" cx="583.5" cy="-451"/><circle class="node ring" r="120.01123795599317" fill="none" stroke="rgba(255, 255, 255, 0)" stroke-width="10px" cx="583.5" cy="-451"/><path class="relationship overlay" fill="rgba(255, 255, 255, 0)" stroke="rgba(255, 255, 255, 0)" stroke-width="10px" transform="translate(583.5,0) rotate(-90)" d="M 126.01123795599317 4 L 292.9887620440068 4 L 292.9887620440068 16 L 324.9887620440068 0 L 292.9887620440068 -16 L 292.9887620440068 -4 L 126.01123795599317 -4 Z"/><circle class="node overlay" r="115.01123795599317" stroke="none" fill="rgba(255, 255, 255, 0)" cx="583.5" cy="-901.9929809570312"/><circle class="node ring" r="120.01123795599317" fill="none" stroke="rgba(255, 255, 255, 0)" stroke-width="10px" cx="583.5" cy="-901.9929809570312"/><path class="relationship overlay" fill="rgba(255, 255, 255, 0)" stroke="rgba(255, 255, 255, 0)" stroke-width="10px" transform="translate(583.5,-451) rotate(-90)" d="M 126.01123795599317 4 L 292.98174300103807 4 L 292.98174300103807 16 L 324.98174300103807 0 L 292.98174300103807 -16 L 292.98174300103807 -4 L 126.01123795599317 -4 Z"/><circle class="node overlay" r="86.70421916217559" stroke="none" fill="rgba(255, 255, 255, 0)" cx="1183.16455078125" cy="0"/><circle class="node ring" r="91.70421916217559" fill="none" stroke="rgba(255, 255, 255, 0)" stroke-width="10px" cx="1183.16455078125" cy="0"/><path class="relationship overlay" fill="rgba(255, 255, 255, 0)" stroke="rgba(255, 255, 255, 0)" stroke-width="10px" transform="translate(583.5,0) rotate(0)" d="M 126.01123795599317 4 L 469.9603316190744 4 L 469.9603316190744 16 L 501.9603316190744 0 L 469.9603316190744 -16 L 469.9603316190744 -4 L 126.01123795599317 -4 Z"/><circle class="node overlay" r="86.70421916217559" stroke="none" fill="rgba(255, 255, 255, 0)" cx="1183.16455078125" cy="-451"/><circle class="node ring" r="91.70421916217559" fill="none" stroke="rgba(255, 255, 255, 0)" stroke-width="10px" cx="1183.16455078125" cy="-451"/><path class="relationship overlay" fill="rgba(255, 255, 255, 0)" stroke="rgba(255, 255, 255, 0)" stroke-width="10px" transform="translate(583.5,-451) rotate(0)" d="M 126.01123795599317 4 L 469.9603316190744 4 L 469.9603316190744 16 L 501.9603316190744 0 L 469.9603316190744 -16 L 469.9603316190744 -4 L 126.01123795599317 -4 Z"/><circle class="node overlay" r="86.45729594176916" stroke="none" fill="rgba(255, 255, 255, 0)" cx="1820.6629638671875" cy="0"/><circle class="node ring" r="91.45729594176916" fill="none" stroke="rgba(255, 255, 255, 0)" stroke-width="10px" cx="1820.6629638671875" cy="0"/><path class="relationship overlay" fill="rgba(255, 255, 255, 0)" stroke="rgba(255, 255, 255, 0)" stroke-width="10px" transform="translate(1183.16455078125,0) rotate(0)" d="M 97.70421916217559 4 L 508.0411171441683 4 L 508.0411171441683 16 L 540.0411171441683 0 L 508.0411171441683 -16 L 508.0411171441683 -4 L 97.70421916217559 -4 Z"/><circle class="node overlay" r="86.45729594176916" stroke="none" fill="rgba(255, 255, 255, 0)" cx="1742.3878173828125" cy="-685.851318359375"/><circle class="node ring" r="91.45729594176916" fill="none" stroke="rgba(255, 255, 255, 0)" stroke-width="10px" cx="1742.3878173828125" cy="-685.851318359375"/><path class="relationship overlay" fill="rgba(255, 255, 255, 0)" stroke="rgba(255, 255, 255, 0)" stroke-width="10px" transform="translate(1183.16455078125,-451) rotate(-22.780450153807095)" d="M 97.70421916217559 4 L 477.0786087198252 4 L 477.0786087198252 16 L 509.0786087198252 0 L 477.0786087198252 -16 L 477.0786087198252 -4 L 97.70421916217559 -4 Z"/><circle class="node overlay" r="86.70421916217559" stroke="none" fill="rgba(255, 255, 255, 0)" cx="1183.16455078125" cy="-901.9929809570312"/><circle class="node ring" r="91.70421916217559" fill="none" stroke="rgba(255, 255, 255, 0)" stroke-width="10px" cx="1183.16455078125" cy="-901.9929809570312"/><path class="relationship overlay" fill="rgba(255, 255, 255, 0)" stroke="rgba(255, 255, 255, 0)" stroke-width="10px" transform="translate(583.5,-901.9929809570312) rotate(0)" d="M 126.01123795599317 4 L 469.9603316190744 4 L 469.9603316190744 16 L 501.9603316190744 0 L 469.9603316190744 -16 L 469.9603316190744 -4 L 126.01123795599317 -4 Z"/><path class="relationship overlay" fill="rgba(255, 255, 255, 0)" stroke="rgba(255, 255, 255, 0)" stroke-width="10px" transform="translate(1183.16455078125,-901.9929809570312) rotate(21.13168377193755)" d="M 97.70421916217559 4 L 470.0824276954568 4 L 470.0824276954568 16 L 502.0824276954568 0 L 470.0824276954568 -16 L 470.0824276954568 -4 L 97.70421916217559 -4 Z"/><circle class="node overlay" r="93.97910345858652" stroke="none" fill="rgba(255, 255, 255, 0)" cx="2345.3148193359375" cy="-451"/><circle class="node ring" r="98.97910345858652" fill="none" stroke="rgba(255, 255, 255, 0)" stroke-width="10px" cx="2345.3148193359375" cy="-451"/><path class="relationship overlay" fill="rgba(255, 255, 255, 0)" stroke="rgba(255, 255, 255, 0)" stroke-width="10px" transform="translate(1183.16455078125,-451) rotate(0)" d="M 97.70421916217559 4 L 1025.171165096101 4 L 1025.171165096101 16 L 1057.171165096101 0 L 1025.171165096101 -16 L 1025.171165096101 -4 L 97.70421916217559 -4 Z"/><path class="relationship overlay" fill="rgba(255, 255, 255, 0)" stroke="rgba(255, 255, 255, 0)" stroke-width="10px" transform="translate(-317.5824966430664,-451) rotate(0)" d="M 89.18226787956077 4 L 743.0712586870733 4 L 743.0712586870733 16 L 775.0712586870733 0 L 743.0712586870733 -16 L 743.0712586870733 -4 L 89.18226787956077 -4 Z"/><path class="relationship overlay" fill="rgba(255, 255, 255, 0)" stroke="rgba(255, 255, 255, 0)" stroke-width="10px" transform="translate(-317.5824966430664,-451) rotate(-26.58802548459756)" d="M 89.18226787956077 4 L 849.6317219405224 4 L 849.6317219405224 16 L 881.6317219405224 0 L 849.6317219405224 -16 L 849.6317219405224 -4 L 89.18226787956077 -4 Z"/><circle class="node overlay" r="93.97910345858652" stroke="none" fill="rgba(255, 255, 255, 0)" cx="1820.6629638671875" cy="544.9842834472656"/><circle class="node ring" r="98.97910345858652" fill="none" stroke="rgba(255, 255, 255, 0)" stroke-width="10px" cx="1820.6629638671875" cy="544.9842834472656"/><path class="relationship overlay" fill="rgba(255, 255, 255, 0)" stroke="rgba(255, 255, 255, 0)" stroke-width="10px" transform="translate(1183.16455078125,0) rotate(40.5264516758336)" d="M 97.70421916217559 4 L 701.7175615470745 4 L 701.7175615470745 16 L 733.7175615470745 0 L 701.7175615470745 -16 L 701.7175615470745 -4 L 97.70421916217559 -4 Z"/><path class="relationship overlay" fill="rgba(255, 255, 255, 0)" stroke="rgba(255, 255, 255, 0)" stroke-width="10px" transform="translate(2345.3148193359375,-451) rotate(-158.7181580518204)" d="M 104.97910345858652 4 L 517.5945655185933 4 L 517.5945655185933 16 L 549.5945655185933 0 L 517.5945655185933 -16 L 517.5945655185933 -4 L 104.97910345858652 -4 Z"/><path class="relationship overlay" fill="rgba(255, 255, 255, 0)" stroke="rgba(255, 255, 255, 0)" stroke-width="10px" transform="translate(1820.6629638671875,544.9842834472656) rotate(-90)" d="M 104.97910345858652 4 L 415.52698750549644 4 L 415.52698750549644 16 L 447.52698750549644 0 L 415.52698750549644 -16 L 415.52698750549644 -4 L 104.97910345858652 -4 Z"/></g></svg>